<?xml version="1.0" encoding="utf-8"?>
<!-- Generator: Adobe Illustrator 26.5.0, SVG Export Plug-In . SVG Version: 6.00 Build 0)  -->
<svg version="1.0" id="Layer_1" xmlns="http://www.w3.org/2000/svg" xmlns:xlink="http://www.w3.org/1999/xlink" x="0px" y="0px"
	 viewBox="0 0 234.33 173" style="enable-background:new 0 0 234.33 173;" xml:space="preserve">
<style type="text/css">
	.st0{fill:url(#XMLID_00000122706609007058880780000016153794246230167204_);}
	.st1{fill:url(#XMLID_00000006687392841734268020000014702086481468473272_);}
	.st2{fill:#005130;}
	.st3{fill:#FFFFFF;}
</style>
<g id="XMLID_1_">
	<g id="XMLID_29_">
		
			<linearGradient id="XMLID_00000101078979668061611500000003602800573930985094_" gradientUnits="userSpaceOnUse" x1="178.5744" y1="811.1615" x2="60.0433" y2="883.5132" gradientTransform="matrix(1 0 0 1 0 -754.6898)">
			<stop  offset="0" style="stop-color:#008A30"/>
			<stop  offset="1" style="stop-color:#78C58B"/>
		</linearGradient>
		<path id="XMLID_32_" style="fill:url(#XMLID_00000101078979668061611500000003602800573930985094_);" d="M175.87,56.1
			c10.3,8.1,11.6,17.6,12.1,23.8c1.3,16.4-8.1,37-41.2,44.5c-31.6,7-67.9,2.2-83.8-4.2c-15.9-6.5-18.2-14.8-15.8-22.3
			c4.5-13.8,24.1-32.8,51-43.7C98.17,54.2,145.97,32.4,175.87,56.1z"/>
		
			<linearGradient id="XMLID_00000097463342267948771290000006359975327906256280_" gradientUnits="userSpaceOnUse" x1="106.4467" y1="882.2939" x2="133.4922" y2="781.3586" gradientTransform="matrix(1 0 0 1 0 -754.6898)">
			<stop  offset="0" style="stop-color:#008A30"/>
			<stop  offset="1" style="stop-color:#92D1A0"/>
		</linearGradient>
		<path id="XMLID_30_" style="fill:url(#XMLID_00000097463342267948771290000006359975327906256280_);" d="M171.87,56.7
			c9.8,7.5,11.1,16.2,11.5,22c1.3,15.1-7.7,34.2-39.3,41.1c-30,6.5-64.6,2.1-79.8-3.9c-15.1-5.9-17.3-13.6-15-20.5
			c4.3-12.8,22.9-30.3,48.6-40.4C97.87,55,143.37,34.9,171.87,56.7z"/>
	</g>
	<g id="XMLID_2_">
		<g id="XMLID_3_">
			<path id="XMLID_26_" class="st2" d="M108.07,75.8L108.07,75.8L108.07,75.8L108.07,75.8z M196.47,77.1c-1.6-1.3-3.7-1.6-4.9-1.7
				l0,0c-0.4,0-0.9-0.1-1.2-0.1c-2.1,0-4.4,0.6-6.3,1.9c0.2-0.7,0.3-1.1,0.3-1.4l0.1-0.4c0.5-2,0.8-3.2,0.5-4.6
				c-0.2-0.8-0.6-1.5-1.1-2c-0.8-0.9-2-1.4-3.3-1.6c0,0-0.8-0.1-1.3,0c-0.8,0.1-1.4,0.2-2,0.4c-0.1,0-0.1,0-0.2,0.1l-1,0.4l0,0
				c-0.6,0.2-1.1,0.6-1.4,1.1c-0.5,0.8-0.4,1.9,0.2,2.7c0,0.1,0.1,0.2,0,0.5c-0.1,0.4-0.3,1.6-0.6,3.2c-3.1,0.2-5.9,1.2-8.1,2.9
				c0.3-1.1,0.5-2,0.6-2.3l0.1-0.4c0.5-2,0.8-3.2,0.5-4.6c-0.2-0.8-0.6-1.4-1.1-2c-0.8-0.9-2-1.4-3.3-1.6c0,0-0.8-0.1-1.3,0
				c-0.8,0.1-1.4,0.2-2,0.4c-0.1,0-0.1,0-0.2,0.1l-1,0.4l0,0c-0.6,0.2-1,0.6-1.4,1.1c-0.5,0.8-0.4,1.9,0.2,2.7c0,0.1,0.1,0.2,0,0.5
				c-0.1,0.5-0.4,2.2-0.8,4.2c-1.1-0.8-2.5-1.3-4.1-1.4c-0.4,0-0.9-0.1-1.3-0.1c-3.2,0-6,1.5-8.1,3.6c-0.2-0.7-0.5-1.3-1.1-1.8
				c-0.4-0.4-0.8-0.7-1.4-1c0.9-1.1,1.4-2.6,1.2-4.2c-0.3-2.7-2.8-4.6-6.2-4.9c-0.2,0-0.4,0-0.7,0c-5.5-0.2-10,3.2-11.4,8.6
				l-0.2,0.8c-0.6,0.2-1.1,0.6-1.5,1c-0.8-0.8-2.1-1.6-4.1-1.8l0,0c-0.4,0-0.8-0.1-1.3-0.1c-1.6,0-3.3,0.4-4.8,1
				c-0.7-0.5-1.6-0.7-2.5-0.8c-0.2,0-0.5,0-0.7,0c-0.9,0-1.7,0.2-2.4,0.4h-0.1l-1.2,0.2c-0.4,0.1-0.7,0.3-0.9,0.6
				c-1.1-0.8-2.5-1.4-4.2-1.5c-0.5-0.1-0.9-0.1-1.3-0.1c-3.2,0-6,1.5-8.2,3.6c-0.2-0.3-0.4-0.7-0.7-1c-1.2-1.4-3-2.3-5.3-2.5
				c-0.4-0.1-0.9-0.1-1.3-0.1c-2.4,0-4.6,0.9-6.5,2.2c-0.1-0.1-0.2-0.3-0.3-0.4c-0.5-0.6-1.4-1.3-2.9-1.4c-0.2,0-0.5,0-0.7,0
				c-1.4,0-2.7,0.5-3.8,1.1c-0.8-0.6-1.7-0.9-2.7-1c-0.2,0-0.5,0-0.7,0c-0.3,0-0.6,0-0.9,0.1c0-0.1,0-0.2,0.1-0.4c0,0,0,0,0-0.1
				c0.1-1-0.1-3.5-3.4-5c-1.6-0.7-3.4-1-4.6-1.2c-0.6-0.1-1.2-0.1-1.7-0.1c-4.2,0-8.2,1.7-11.6,4.8c-2.9,2.7-5,6.4-5.9,10.1
				c-0.2,0.7-0.3,1.4-0.4,2.1c-0.3,3.2,0.4,6.1,2,8.3c1.8,2.5,4.7,4,8.3,4.4l0,0c0.6,0.1,1.2,0.1,1.8,0.1c0.8,0,2-0.1,3.2-0.2
				c1.2-0.1,2.6-0.2,3.5-0.2c0.1,0,0.2,0,0.3,0c0.1,0,0.1,0,0.1,0s0,0,0.1,0l0.8,0.1c0.1,0,0.1,0,0.2,0h0.1c0.8,0.1,1.6-0.2,2.1-0.8
				c0.7,0.5,1.5,0.8,2.4,0.9l0,0c0.2,0,0.4,0,0.7,0c0.8,0,1.5-0.1,2.1-0.3c0.2,0,0.4-0.1,0.6-0.1l0.7-0.1c0.7-0.1,1.2-0.5,1.6-1
				s0.5-1.2,0.4-1.8l-0.1-0.9c0-0.1,0-0.4,0-0.8c0-0.4,0.1-0.9,0.2-1.6c1.4,3.5,4.8,6.2,9.1,6.6c1.4,0.1,2.7,0,3.9-0.3
				c1.3-0.3,2.5-0.8,3.4-1.5c0.8-0.6,1.6-1.2,2.2-2c0.1,0.1,0.2,0.2,0.2,0.3c1.4,1.9,3.6,3.1,6.1,3.4l0,0c0.3,0,0.7,0.1,1.1,0.1
				c2.2-0.1,4.1-0.7,5.5-1.6c0.3,0.4,0.7,0.7,1.2,0.9l1,0.3c0.1,0,0.1,0,0.2,0.1c0.6,0.1,1.3,0.3,2,0.3c0.3,0,0.5,0,0.8,0
				c2.3,0.1,5-1.3,5.7-4.7c0-0.1,0-0.2,0.1-0.3c0,1.3,0.6,2.6,1.5,3.5c0.9,0.8,2,1.3,3.3,1.4c0.2,0,0.4,0,0.6,0c0.4,0,0.8,0,1.2-0.1
				c-0.5,1-0.9,1.5-1.1,1.6c-0.4,0.3-0.8,0.7-1,0.9c-0.5,0.4-0.8,1-0.9,1.7c-0.1,1.3,0.8,2.5,2.2,2.7c0.3,0.1,0.6,0.1,0.9,0.1
				c1.9,0.2,3.4-0.1,3.8-0.2c0.3-0.1,0.5-0.1,0.8-0.2c2.1-0.5,4.6-2.5,5.6-5.3c0-0.1,0-0.1,0.1-0.2c0.3-1,0.9-3.5,1.4-5.1
				c0.2,1.5,1.3,2.7,2.8,3.2c0.8,0.3,1.7,0.5,2.5,0.5l0,0c0.3,0,0.7,0,0.8,0c1.3,0.1,2.3,0,3.6-0.4c0.3-0.1,0.6-0.3,0.9-0.4
				c0.5-0.3,0.9-0.8,1.1-1.4c1.4,1.3,3.2,2.2,5.2,2.4l0,0c0.3,0,0.7,0.1,1.2,0.1c2.6-0.1,4.6-0.9,6.2-2.1c0.1,0.2,0.3,0.5,0.4,0.7
				c0.7,0.9,1.8,1.5,3.1,1.6l0,0c0.3,0,0.8,0,0.8,0c1.5,0.1,2.6-0.1,4.1-0.7c0.6-0.2,1-0.6,1.3-1.2c1.1,0.9,2.5,1.5,4,1.6l0,0
				c0.3,0,0.6,0,1,0c1.7,0,3.1-0.4,4.3-0.9c0.6,0.4,1.4,0.7,2.2,0.8l0,0c0.2,0,0.7,0,0.8,0c1.4,0.1,2.7-0.2,4.1-0.7
				c0.3-0.1,0.7-0.4,0.9-0.6c0.2,0.1,0.4,0.2,0.5,0.2c1.4,0.6,2.8,0.9,3.8,1l0,0c0.4,0,0.8,0.1,1.2,0.1l0,0c4.1,0,9-2.3,10.3-7.4
				c0.1-0.4,0.1-0.8,0.2-1.1c0.2-2.2-0.5-3.9-1.6-5.1c1.7-1,2.9-2.6,3.2-4l0,0c0-0.2,0.1-0.4,0.1-0.6
				C197.97,79.2,197.47,77.9,196.47,77.1z"/>
			<g id="XMLID_4_">
				<path id="G_1_" class="st3" d="M59.77,72.7c-1.1-0.5-2.5-0.8-3.9-0.9c-0.5-0.1-1-0.1-1.5-0.1c-7.8,0.1-13.6,6.6-15,13
					c-0.1,0.6-0.2,1.2-0.3,1.8c-0.2,2.4,0.2,4.8,1.5,6.6c1.3,1.8,3.5,3.1,6.6,3.4l0,0c0.5,0.1,1,0.1,1.6,0.1c1.6,0,4.9-0.5,6.8-0.5
					c0.2,0,0.4,0,0.5,0c0.2,0,0.4,0.1,0.4,0.1l0.8,0.1h0.1l0.1-0.6v-0.2c0,0,0.3-1.7,0.6-2.6c0.4-1.7,1.1-3.9,1.5-5.6
					c0-0.2,0.1-0.3,0.1-0.5c0.1-0.7-0.2-1.5-0.7-1.9s-1.1-0.6-1.7-0.7c-0.2,0-0.4,0-0.6,0c-0.5,0-1.5,0.1-2.5,0.4l0,0l0,0
					c0.3,0.5,0.4,1.2,0.3,1.5c-0.1,1-0.5,2.6-0.8,4.1c-0.2,0.8-0.5,1.8-0.7,2.6c-1,0.3-2,0.4-3,0.4c-0.2,0-0.5,0-0.7,0
					c-1.8-0.2-3-1.1-3.7-2.4c-0.8-1.4-1-3.3-0.8-5.3c0.1-0.6,0.2-1.2,0.3-1.8c1.4-5.9,5.1-8.5,8.3-8.5l0,0c0.2,0,0.4,0,0.6,0
					c1.9,0.2,3.5,1.3,4.4,3.4l0.2,0.4h0.1c1.8-0.6,2.9-2.3,3.2-3.3c0-0.1,0-0.2,0-0.3C61.87,74,60.87,73.2,59.77,72.7z"/>
				<path id="r_1_" class="st3" d="M72.77,83.6c0.8-0.9,1.3-1.9,1.6-2.9c0-0.2,0.1-0.4,0.1-0.5c0-0.4,0-0.8-0.3-1.2
					c-0.3-0.4-0.8-0.5-1.3-0.6c-0.1,0-0.3,0-0.4,0l0,0c-1.4,0-3.1,0.9-4.5,2c-0.1-0.4-0.2-0.8-0.4-1c-0.4-0.5-1.2-0.8-1.8-0.9
					c-0.2,0-0.3,0-0.5,0c-0.6,0-1.2,0.2-1.8,0.3l-1,0.3l0,0l0,0c0.5,0.6,0.6,1.4,0.6,2.3c-0.4,1.1-0.7,3.1-1.4,6.1
					c-0.4,1.7-1,3.6-1.5,5.6c-0.1,0.3-0.1,0.6-0.1,0.8c-0.1,0.7,0,1.3,0.4,1.8c0.4,0.5,0.9,0.7,1.4,0.7l0,0c0.1,0,0.3,0,0.4,0
					c0.8,0,1.6-0.2,2.4-0.3l0.7-0.1l-0.2-1.1c0-0.2,0-0.6,0-1.3c0.1-1.1,0.4-2.8,1-5.6c0.4-1.7,0.9-3.2,1.6-4.2
					c0.7-1,1.4-1.4,2.3-1.4h0.2C71.07,82.5,72.17,82.8,72.77,83.6L72.77,83.6L72.77,83.6z"/>
				<path id="e_3_" class="st3" d="M85.87,90.5c0,0-0.9,0.8-2,1.3c-1,0.4-2.3,0.7-3.4,0.7c-0.2,0-0.3,0-0.5,0
					c-2-0.2-2.7-1.5-2.6-4.2c0-0.2,0-0.4,0.1-0.6c0.5,0.2,1.3,0.5,2.2,0.6c0.2,0,0.4,0,0.7,0c2.9,0,6.9-1.2,7.8-4.9
					c0-0.2,0.1-0.4,0.1-0.7c0.1-1.1-0.1-2.2-0.9-3.1c-0.8-0.9-2-1.5-3.6-1.7c-0.3,0-0.7-0.1-1,0l0,0c-5.2,0.1-9.2,4.9-10.3,9.6
					c-0.1,0.5-0.2,1-0.2,1.4c-0.2,2,0.2,3.8,1.2,5.1c1,1.3,2.5,2.2,4.4,2.4l0,0c0.3,0,0.5,0,0.8,0C83.67,96.3,85.57,92.7,85.87,90.5
					L85.87,90.5z M79.47,82.7c0.8-1.1,1.8-1.9,2.5-1.8c0.1,0,0.1,0,0.2,0c0.5,0.1,0.6,0.2,0.8,0.4c0.1,0.2,0.2,0.7,0.2,1.2
					c0,0.2,0,0.4-0.1,0.6l0,0c-0.4,1.6-1.7,2.2-2.9,2.2c-0.2,0-0.4,0-0.5,0c-0.5,0-1-0.2-1.3-0.3l0,0
					C78.37,84.4,78.87,83.5,79.47,82.7z"/>
				<path id="e_2_" class="st3" d="M101.27,90.5c0,0-0.9,0.8-2,1.3c-1,0.4-2.3,0.7-3.4,0.7c-0.2,0-0.3,0-0.5,0
					c-2-0.2-2.7-1.5-2.6-4.2c0-0.2,0-0.4,0.1-0.6c0.5,0.2,1.3,0.5,2.2,0.6c0.2,0,0.4,0,0.7,0c2.9,0,6.9-1.2,7.8-4.9
					c0-0.2,0.1-0.4,0.1-0.7c0.1-1.1-0.1-2.2-0.9-3.1s-2-1.5-3.6-1.7c-0.3,0-0.7-0.1-1,0l0,0c-5.1,0.1-9.1,4.8-10.2,9.5
					c-0.1,0.5-0.2,1-0.2,1.4c-0.2,2,0.2,3.8,1.2,5.1c1,1.3,2.5,2.2,4.4,2.4l0,0c0.3,0,0.6,0,0.8,0
					C99.07,96.2,100.97,92.7,101.27,90.5L101.27,90.5z M94.97,82.7c0.8-1.1,1.8-1.8,2.5-1.8c0.1,0,0.1,0,0.2,0
					c0.5,0.1,0.6,0.2,0.8,0.4c0.1,0.3,0.1,0.7,0.1,1.2c0,0.2-0.1,0.4-0.1,0.6l0,0c-0.4,1.6-1.7,2.2-2.9,2.2c-0.2,0-0.4,0-0.5,0
					c-0.5,0-1-0.2-1.3-0.3l0,0C93.87,84.4,94.37,83.5,94.97,82.7z"/>
				<path id="n_1_" class="st3" d="M119.77,94.1L119.77,94.1c-0.6,0.3-1.3,0.1-1.5-0.4c-0.1-0.1-0.2-0.4-0.1-0.8
					c0-0.4,0.3-1.6,0.4-2.1c0.6-2.7,1.3-4.9,1.8-7.2c0.1-0.5,0.2-1,0.3-1.4c0.1-0.9,0-1.8-0.5-2.6c-0.6-0.8-1.6-1.3-2.9-1.4
					c-0.3,0-0.6,0-1,0c-1.8,0-3.8,0.6-5.3,1.7c-0.1-0.3-0.3-0.6-0.5-0.8c-0.4-0.4-1-0.6-1.7-0.7c-0.1,0-0.3,0-0.5,0
					c-0.6,0-1.2,0.2-1.8,0.3l-1,0.3l0,0c0.5,0.5,0.6,1.4,0.5,2c0,0.4-0.1,1-0.2,1.6c-0.3,1.5-0.6,3.2-1,4.8c-0.7,2.8-1.2,4.8-1.7,6
					c-0.2,0.6-0.5,1.2-0.6,1.4c-0.3,0.5-0.8,1-0.8,1l1,0.3c0.5,0.1,1.1,0.2,1.7,0.3c0.2,0,0.4,0,0.6,0c1.3,0.1,2.8-0.8,3.2-2.7
					c0.7-3.1,1.1-5.3,1.8-8.1c0.6-2.7,2.9-4.1,4.2-4c0.1,0,0.3,0,0.4,0c0.6,0.1,0.8,0.2,0.9,0.4c0.1,0.2,0.2,0.6,0.1,1.2
					c0,0.5-0.2,1.1-0.3,1.8c-0.8,3.3-1.3,5.2-1.9,8c0,0.2-0.1,0.4-0.1,0.5c-0.1,0.9,0.2,1.7,0.7,2.1c0.5,0.5,1.2,0.7,1.8,0.8
					c0.2,0,0.3,0,0.5,0C117.87,96.4,119.17,95.4,119.77,94.1z"/>
				<path id="f_1_" class="st3" d="M138.77,74.8L138.77,74.8L138.77,74.8L138.77,74.8z M139.87,72.1c-0.2-1.7-2.1-2.7-4.6-2.8
					c-4.1-0.2-7.8,2.1-8.9,6.8l-0.6,2.3c-1.1,0.1-1.7,0.5-2,0.8c-0.5,0.6-0.8,1.5-1,2.6l0,0c0.7-0.2,2.1-0.1,2.1-0.1l-3.3,13.3
					l-1,3.4c-0.3,0.8-1,2.6-2.1,3.6c-0.5,0.5-1.2,1-1.2,1l0,0c1.7,0.3,3.3,0.2,3.9,0c0.2-0.1,0.5-0.1,0.7-0.2
					c1.3-0.3,3.2-1.7,3.9-3.7c0.6-2.4,1-4.2,1.5-6.2l0.3-1c0-0.2,0.1-0.4,0.1-0.5l0,0l2.4-9.7c0.2,0,0.5,0,0.8,0
					c1.2-0.1,2.5-0.8,2.9-2.5c0.1-0.4,0.2-0.8,0.2-1.3l0,0c-1,0.2-2.1,0.2-3.1,0.3l0,0c0.3-1.8,0.8-3.3,1.3-4c0.8-1,1.7-1.4,3.2-1.4
					c1.2,0,2.7,0.3,3.2,2C139.57,74.2,139.97,73.1,139.87,72.1z"/>
				<path id="i_1_" class="st3" d="M140.67,79.9c-0.1-0.4-0.2-0.7-0.5-0.9c-0.4-0.5-1.1-0.7-1.8-0.8c-0.2,0-0.6,0-0.8,0
					c-0.6,0.1-1,0.1-1.6,0.3l-1,0.3l0,0l0,0c0.4,0.6,0.6,1.5,0.4,2.4c-0.2,1.2-0.4,2.7-1.2,5.7c-0.4,1.7-1.2,3.8-1.7,5.8
					c-0.1,0.3-0.1,0.7-0.2,0.9c-0.1,0.7,0,1.4,0.4,1.8c0.4,0.5,0.9,0.7,1.4,0.7l0,0c0.1,0,0.5,0,0.6,0c1.1,0.1,2-0.1,3.1-0.5l0,0
					v0.1c-0.4-0.5-0.4-1.4-0.3-2.3c0.1-1.1,0.5-2.8,1.2-5.5c0.4-1.7,0.8-3.1,1.2-4.3C140.57,81.5,140.87,80.6,140.67,79.9z"/>
				<path id="e_1_" class="st3" d="M154.17,90.4c0,0-0.9,0.8-2,1.3c-1,0.4-2.3,0.7-3.4,0.7c-0.2,0-0.3,0-0.5,0
					c-2-0.2-2.7-1.5-2.6-4.2c0-0.2,0-0.4,0.1-0.6c0.5,0.2,1.3,0.5,2.2,0.6c0.2,0,0.4,0,0.7,0c2.9,0,6.9-1.2,7.8-4.9
					c0.1-0.2,0.1-0.4,0.1-0.7c0.1-1.1-0.1-2.2-0.9-3.1s-2-1.5-3.6-1.7c-0.3,0-0.7,0-1,0l0,0c-5.1,0.1-9.1,4.8-10.2,9.5
					c-0.1,0.5-0.2,1-0.2,1.4c-0.2,2,0.2,3.8,1.2,5.1c1,1.3,2.5,2.2,4.4,2.4l0,0c0.3,0,0.6,0,0.8,0
					C151.87,96.2,153.87,92.7,154.17,90.4L154.17,90.4z M147.77,82.6c0.8-1.1,1.8-1.8,2.5-1.8c0.1,0,0.1,0,0.2,0
					c0.5,0.1,0.6,0.2,0.8,0.4c0.1,0.3,0.2,0.7,0.2,1.2c0,0.2,0,0.4-0.1,0.6l0,0c-0.4,1.6-1.7,2.2-2.9,2.2c-0.2,0-0.4,0-0.5,0
					c-0.5,0-1-0.2-1.3-0.3l0,0C146.67,84.3,147.17,83.4,147.77,82.6z"/>
				<path id="l_1_" class="st3" d="M164.87,71.8c-0.1-0.4-0.2-0.7-0.5-0.9c-0.4-0.5-1.2-0.7-1.8-0.8c-0.2,0-0.6,0-0.8,0
					c-0.6,0.1-1,0.1-1.6,0.3l-1,0.4l0,0l0,0c0.5,0.6,0.6,1.5,0.5,2.4c-0.2,1.2-1.6,8-2.3,11c-0.4,1.7-1.7,7-2.1,8.9
					c-0.1,0.3-0.1,0.7-0.2,0.9c-0.1,0.7,0.1,1.4,0.4,1.8c0.4,0.5,0.9,0.7,1.4,0.7l0,0c0.1,0,0.5,0,0.6,0c1.1,0,2-0.1,3.1-0.6l0,0
					c-0.4-0.5-0.4-1.4-0.3-2.3c0.1-1.1,1-5.9,1.6-8.7c0.4-1.7,2-8.4,2.3-9.5C164.77,73.5,165.07,72.6,164.87,71.8z"/>
				<path id="d_1_" class="st3" d="M182.57,71.5c-0.1-0.4-0.2-0.7-0.5-0.9c-0.4-0.5-1.2-0.7-1.8-0.8c-0.2,0-0.6,0-0.8,0
					c-0.6,0.1-1,0.1-1.6,0.3l-1,0.4l0,0l0,0c0.5,0.6,0.6,1.5,0.5,2.4c-0.1,0.6-0.4,2.3-0.9,4.3c-0.1,0.3-0.2,0.7-0.2,1
					c-0.1,0-0.1,0-0.2,0c-0.3,0-0.6-0.1-1-0.1c-6.6,0-10.9,4.4-12.2,10.1c-0.1,0.5-0.2,1.1-0.3,1.6c-0.2,1.8,0.1,3.3,0.9,4.5
					c0.8,1.2,2.1,2,3.6,2.1l0,0c0.2,0,0.5,0,0.7,0c2.3,0,3.9-0.9,4.9-1.7c0.1,0.3,0.2,0.6,0.4,0.9c0.4,0.5,0.9,0.7,1.4,0.7l0,0
					c0.1,0,0.5,0,0.6,0c1.1,0.1,2-0.1,3.1-0.6l0,0c-0.4-0.5-0.4-1.4-0.4-2.3c0.1-1.1,1-5.9,1.6-8.7c0.4-1.7,2-8.4,2.3-9.5
					C182.47,73.2,182.77,72.3,182.57,71.5z M169.67,92.9c-0.1,0-0.2,0-0.2,0c-0.7-0.1-1-0.4-1.2-1.1s-0.3-1.6-0.2-2.6
					c0.1-0.6,0.2-1.1,0.3-1.6c0.8-3.4,3.2-6.7,6-6.6c0.2,0,0.5,0,0.7,0l0,0c0.3,0,0.5,0.1,0.5,0.1l0,0c0,0,0,0,0,0.1l-0.7,3
					c-0.3,1.1-0.7,2.8-1,3.9C173.27,90.3,171.77,92.9,169.67,92.9z"/>
				<path id="XMLID_5_" class="st3" d="M192.27,83.3L192.27,83.3L192.27,83.3L192.27,83.3z M195.37,80.4c0-0.1,0-0.1,0-0.2
					c0.1-0.5-0.2-1-0.5-1.3c-0.9-0.8-2.4-1-3.6-1.2c-0.4,0-0.7-0.1-1-0.1c-3.2,0-6.8,1.8-7.6,5.4c-0.1,0.3-0.1,0.5-0.1,0.7
					c-0.3,2.8,1.8,4.2,3.5,5c0.9,0.5,1.7,0.8,2.2,1.2s0.7,0.7,0.7,1.1c0,0.1,0,0.1,0,0.2c-0.2,0.8-0.8,1.6-2.6,1.7
					c-0.2,0-0.4,0-0.5,0c-1.2-0.1-2-0.6-2.5-1.1c-0.3-0.2-0.5-0.5-0.6-0.6c-0.1-0.2-0.2-0.2-0.2-0.2l-0.2-0.4l0,0
					c-0.7,0.1-1.5,0.9-1.8,1.6c-0.1,0.3-0.3,0.8-0.4,1.2c0,0.4,0.1,0.8,0.4,1.1c0.2,0.2,0.7,0.6,1.1,0.8c0.9,0.4,2,0.7,3,0.8
					c0.3,0,0.6,0,0.9,0c3.2,0,7-1.8,7.9-5.5c0.1-0.3,0.1-0.5,0.1-0.8c0.3-2.9-1.8-4.3-3.6-5.1c-0.9-0.4-1.7-0.8-2.3-1.2
					c-0.5-0.4-0.7-0.6-0.7-1v-0.1c0.2-1.1,1.3-1.9,2.3-1.9c0.1,0,0.2,0,0.2,0c0.8,0.1,1.4,0.6,1.8,1.1c0.2,0.3,0.4,0.5,0.5,0.7
					c0.1,0.2,0.1,0.3,0.1,0.3l0.2,0.5C193.87,82.8,195.07,81.4,195.37,80.4z"/>
			</g>
		</g>
	</g>
</g>
</svg>
